<?xml version="1.0" encoding="UTF-8"?>
<svg width="60px" height="60px" viewBox="0 0 60 60" version="1.1" xmlns="http://www.w3.org/2000/svg"
>
  <title>Hoy</title>
  <defs>
    <linearGradient x1="84.8813657%" y1="83.8107639%" x2="15.2633102%" y2="13.2667824%" id="linearGradient-1">
      <stop stop-color="#30CB8A" offset="0%"></stop>
      <stop stop-color="#2CBF94" offset="100%"></stop>
    </linearGradient>
  </defs>
  <g id="Page-1" stroke="none" stroke-width="1" fill="none" fill-rule="evenodd">
    <g id="Artboard-Copy" transform="translate(-200.000000, -3744.000000)">
      <g id="Group-11" transform="translate(200.000000, 3744.000000)">
        <circle id="Oval" fill="url(#linearGradient-1)" cx="30" cy="30" r="30"></circle>
        <g id="Page-1" transform="translate(12.000000, 19.000000)" fill="#FFFFFF">
          <path
            d="M36.8801715,21.8701528 L34.8310943,21.8701528 L34.8310943,15.5373872 C33.9259931,16.6737244 32.5183682,17.080785 31.1356388,17.080785 C28.4430448,17.080785 26.5350822,15.2047771 26.5350822,12.2625315 L26.5350822,5.02693256 L28.5841594,5.02693256 L28.5841594,12.1446918 C28.5841594,13.8783252 29.7301999,15.1572787 31.5903147,15.1572787 C33.2595238,15.1572787 34.4013139,14.2335363 34.8310943,12.692314 L34.8310943,5.02693256 L36.8801715,5.02693256 L36.8801715,21.8701528 Z"
            id="Fill-1"></path>
          <path
            d="M14.373585,10.9587652 C14.373585,13.306011 15.9971322,15.1572424 18.4260775,15.1572424 C20.8591517,15.1572424 22.5034654,13.306011 22.5034654,10.9587652 C22.5034654,8.60958558 20.8591517,6.76040884 18.4260775,6.76040884 C15.9971322,6.76040884 14.373585,8.60958558 14.373585,10.9587652 M24.6251645,10.9587652 C24.6251645,14.3761163 22.0280232,17.0807488 18.4260775,17.0807488 C14.8510917,17.0807488 12.2560149,14.3761163 12.2560149,10.9587652 C12.2560149,7.54141407 14.8510917,4.83883624 18.4260775,4.83883624 C22.0280232,4.83883624 24.6251645,7.54141407 24.6251645,10.9587652"
            id="Fill-4"></path>
          <path
            d="M0,0 L2.0511417,0 L2.0511417,6.33059007 C2.95636433,5.19425284 4.36071026,4.78924688 5.74441118,4.78924688 C8.43603372,4.78924688 10.3481253,6.66332102 10.3481253,9.60544581 L10.3481253,16.8410447 L8.29601203,16.8410447 L8.29601203,9.7232855 C8.29601203,7.9918276 7.15203602,6.71081948 5.29289283,6.71081948 C3.62380512,6.71081948 2.47885757,7.6364956 2.0511417,9.17783879 L2.0511417,16.8410447 L0,16.8410447 L0,0 Z"
            id="Fill-6"></path>
        </g>
      </g>
    </g>
  </g>
</svg>
